<svg xmlns="http://www.w3.org/2000/svg" viewBox="1790 -430 840 1460" fill="none">
  <!-- Lowercase Delta δ from Wikipedia -->
  <path fill="#43d380" d="M 2220.2559,143.55953 C 2186.885,106.18556 2140.5002,61.469258 2081.1012,9.4104804 C 2015.6949,-47.985582 1971.646,-93.202444 1948.9544,-126.24024 C 1926.2623,-159.27579 1914.9164,-195.48265 1914.9166,-234.86093 C 1914.9164,-293.59156 1942.2801,-339.80954 1997.0078,-373.51499 C 2051.735,-407.2177 2123.1476,-424.06974 2211.2458,-424.07116 C 2299.3432,-424.06974 2376.2619,-409.05307 2442.0022,-379.02111 C 2507.7412,-348.98639 2540.611,-307.60712 2540.6118,-254.88318 C 2540.611,-229.52044 2532.6021,-208.4971 2516.5851,-191.8131 C 2500.5665,-175.12672 2481.8791,-166.78413 2460.5228,-166.78529 C 2429.8213,-166.78413 2393.7813,-189.80969 2352.4027,-235.86204 C 2310.3554,-282.57934 2274.8159,-315.44916 2245.7842,-334.47161 C 2216.7515,-353.49139 2182.8805,-363.00195 2144.1713,-363.00331 C 2094.7827,-363.00195 2054.2377,-351.98973 2022.5362,-329.9666 C 1990.834,-307.94083 1974.9831,-279.90971 1974.9833,-245.87317 C 1974.9831,-213.83636 1987.9975,-183.80302 2014.0267,-155.77306 C 2040.0553,-127.74079 2107.1298,-76.684107 2215.2503,-2.6028677 C 2330.7113,76.819632 2412.3019,138.88854 2460.0223,183.60403 C 2507.7412,228.32115 2546.6177,282.71486 2576.6519,346.78534 C 2606.6843,410.85712 2621.701,478.59898 2621.7019,550.01114 C 2621.701,675.48421 2577.4853,786.10702 2489.0545,881.87989 C 2400.6223,977.65299 2297.3409,1025.5395 2179.2103,1025.5395 C 2071.7572,1025.5395 1980.9898,987.16354 1906.9077,910.41159 C 1832.8253,833.65981 1795.7842,731.21275 1795.7842,603.0701 C 1795.7842,479.60009 1836.6629,376.48563 1918.4205,293.72639 C 2000.1777,210.96855 2100.7894,160.91298 2220.2559,143.55953 L 2220.2559,143.55953 z M 2264.3048,189.6107 C 2072.7583,220.97967 1976.9853,352.45895 1976.9856,584.04896 C 1976.9853,703.51533 2000.8451,796.28498 2048.5651,862.3582 C 2096.2844,928.43168 2151.8461,961.46835 2215.2503,961.46832 C 2281.3232,961.46835 2335.7169,929.59964 2378.4316,865.86209 C 2421.145,802.1248 2442.5021,715.86237 2442.5028,607.07455 C 2442.5021,449.56675 2383.1028,310.41228 2264.3048,189.6107 L 2264.3048,189.6107 z " />
</svg>
